<?xml version="1.0" encoding="utf-8"?>
<!-- Generator: Adobe Illustrator 21.0.2, SVG Export Plug-In . SVG Version: 6.00 Build 0)  -->
<svg version="1.1" id="Layer_1" xmlns="http://www.w3.org/2000/svg" xmlns:xlink="http://www.w3.org/1999/xlink" x="0px" y="0px"
	 viewBox="0 0 612 251.9" style="enable-background:new 0 0 612 251.9;" xml:space="preserve">
<style type="text/css">
	.st0{fill:#FFFFFF;}
</style>
<g>
	<path class="st0" d="M197.4,181c-3.8,2.6-7.9,4.8-12,6.2c-7.2,2.6-17.2,4.2-27.2,0c-10.9-4-17.2-8.3-26.6-13.2
		c-6.2,9.7-9.9,11.1-11.9,10.5c-5.2-2.8-6.5-3.8-10.6-3.4c-3.5,0.6-4.9-1.2-5.7-3.2l-0.3-1.8c-0.8-5.9-1.7-21.9,17.5-16.2
		c3.5-6.6,6.8-14.6,10-22.8c5.5-16.9,10.2-32.2,13.7-45.6c6.2-22.9,11.1-45.7,6-46.6c0.2-0.3,20.6-2.8,16.8,22.8
		c-1.7,11.4-6,27.9-10.2,40.9c-2.5,7.9-5.1,15.7-7.9,23.7c-5.1,15.2-9.5,26-13.4,34C158.2,176.8,176.2,184.7,197.4,181z M116.4,167
		c-4.8-1.2-7.9-1.4-9.2,0.9c-1.2,1.2-1.2,6.2,0,7.7c0.6,0.5,1.5,0.5,2.9,0C111.8,173.9,114.1,171.1,116.4,167z"/>
	<path class="st0" d="M217.7,143.1c-1.2,4.3-2.8,8.2-4.6,11.7c-3.2,6-8.9,12.3-16.9,13.1c-15.5,1.7-34.5-2.6-32.5-25.9
		c2.9-32.5,14.5-46,18.6-44.3c6.9,2.5,8.2,3.1,12.9,2.3c1.7-0.3,3.2-0.2,4.3,0.5l1.4,0.9c1.2,1.4,2.2,2.9,2.9,4.9
		c1.2,3.5,2.2,8.5,0.9,15.1c-4.2,13.2-16,19.4-25.1,19.9c-0.5,2-0.8,6-0.8,8V149c-0.5,7.5,5.7,12.6,12,13.7c6,1.1,10.6-0.8,13.1-2.5
		c4.2-2.9,6.6-7.1,8.3-10.6c1.1-2,1.8-4.2,2.5-6.5H217.7z M199.9,103.1c-3.7-7.4-16,13.7-19.2,33.1c5.7-1.5,10.5-3.7,14.2-6.6
		C201.1,124.5,206,116.3,199.9,103.1z"/>
	<path class="st0" d="M261.1,42.7c3.8-1.1,6,0.6,7.1,2.6c0.6,1.1,0.9,2.6,1.1,4.5c-7.9-15.1-18.9,13.5-25.7,38.8
		c0,0.5-0.2,0.9-0.3,1.4h12.6c-0.8,1.1-1.7,2.2-2.8,2.9c-1.8,1.4-4.6,2.8-8.8,2.8h-2.6c-4.9,18.3-12,42.6-14.5,58.2v0.6v1.5
		c1.2,9.2,11.5,10.9,20.5,5.2c4.8-2.9,8-7.5,10-11.2c1.1-2.2,2.2-4.3,2.9-6.6h3.1c-1.2,4.6-3.1,8.8-5.5,12.5
		c-4.2,6.3-10.9,13.1-21.2,13.9c-3.5,0-28.8,2.9-26.9-16.8c0.5-4.5,7.7-35.9,13.1-57.3h-7.4c-0.5-0.5-0.6-1.1-0.8-1.7
		c-0.2-1.4,0.5-2.6,2.2-4h7.4c1.8-7.2,2.9-12.3,3.4-13.7c6.6-26.3,16-37.4,19.7-36.2c7.2,2.5,8.3,3.5,13.5,2.3V42.7z"/>
	<path class="st0" d="M301.6,47.5c10.8,11.4-9.1,38.5-21.2,24.5c6.9,2,11.7-4.2,11.7-6.6c-4.9-0.5-8.3-4.8-7.9-10.2
		c0.6-5.7,5.4-10.2,10.9-10.2C297.6,45,299.8,45.8,301.6,47.5z"/>
	<path class="st0" d="M328.7,141.1c-1.1,3.8-2.5,7.5-4.3,10.9c-3.1,6-8,12.3-15.4,14.6c-2.3,0.8-4.9,1.5-13.4,2.3h-3.2
		c-0.5,0-1.1,0-1.5-0.2c-7.9-0.5-10-4.9-10.2-9.4c-0.2-2.6,0.5-5.5,1.7-8.8c0.2-0.2,0.5-0.3,0.9-0.3c0.6,0,1.2,0.2,2.3,1.4
		c-9.9,18.5,18.6,10.2,18,1.5c0-4.5-6.2-13.2-12.5-22c-4.2-5.5-5.4-10-5.8-13.1c-0.2-1.8-0.2-3.4,0.3-4.8c0-0.5,0-0.9,0.2-1.4
		c5.1-12.5,10.9-20.3,13.9-19.6c6.6,2.5,8,3.7,12.8,2.9c6.8-1.5,7.5,5.2,7.5,6.9v0.2c0,2.3-1.4,7.2-4.3,12.8
		c-3.7,6.9-5.7,9.2-9.4,14.2c1.1,0.8,1.4,1.8,2.5,2.9c8.5,10.5,7.9,19.1,6.9,22c-0.2,0.6-0.5,1.2-0.8,1.8c-0.6,1.1-1.4,2.6-2.8,4
		c0.8-0.2,1.4-0.5,2-1.1c4.2-2.9,7.1-7.5,8.9-11.2c1.1-2.2,2-4.5,2.5-6.8H328.7z M302.6,112.3c-1.1,3.2-1.2,8.3,2.5,14.6
		c4.2-5.5,8-10.9,9.9-15.4c2.6-5.4,4.2-9.9,2.2-12.8c-2.2-4.2-8.3,2.2-12.3,9.4h0.3c0,0.2,0,0.2-0.2,0.2l-0.5,0.3L302.6,112.3z"/>
	<path class="st0" d="M440.6,123.1c4.8,2.2,8.8,6.2,7.1,15.5c-1.7,8.6-6.2,20.2-10.3,30c-2.5,5.7-5.1,11.4-7.9,17.2
		c-16,35.3-26.2,39.3-29.1,38c-5.7-1.7-6.3-2.2-10.6-2.2c-2.9,0.5-4.5-0.5-5.2-1.5c-9.9-12.8-7.1-23.4-2.2-31.3
		c2.9-4.5,7.1-8.6,12.5-12.5c11.2-0.8,13.4,8,11.9,9.1c-27.2,8.2-25.4,21.9-21.7,29.2v-1.4c0.2,1.1,0.5,2,0.9,2.8
		c0.8,1.2,2.3,2.3,4.8,1.5c6-4,14-15.9,20.6-28.3l3.7-8.9c2.3-5.4,5.2-12.6,8.2-20.5c-11.7,10.3-24.5,12.9-34.6,12.9
		c-6,0-11.9-0.8-17.5-2.5v-0.2c-15.5-4.2-32.3-15.4-27.4-45.6c9.9-57.9,38.8-80.1,49-77.6c16.5,4.2,19.2,5.9,31.1,4.6
		c9.2-1.7,13.5,1.4,15.9,4.9c1.4,2,2.2,4.5,2.3,7.4c-21.4-32.9-83.7,31.6-77.1,87.4c6.2,19.2,43.6,13.7,58.2-1.5
		c2.3-2.3,4.3-4.8,6.2-7.2c0.2-0.2,0.3-0.6,0.8-0.8c1.1-3.8,1.8-7.2,2.5-10.3c-32,10.6-46.5,23.7-42.3,22
		c-13.7-0.6,0.2-34,40.8-32.2C434.6,121.4,437.9,122,440.6,123.1z"/>
	<path class="st0" d="M508.8,143.7c-0.2,1.4-0.8,2.8-1.8,3.8c-1.7,1.8-5.2,3.7-11.9,3.2c-2.9,0-5.7-0.5-8.3-1.4
		c-0.6,1.7-1.1,3.2-1.7,4.5l-0.3,1.4c-0.2,0.2-0.2,0.3-0.2,0.5c-4.8,10.9-10.9,14.3-16.3,15.1c-3.1,0.5-6.2,0-9.4-1.1
		c-6.8-2.5-13.7-8.6-12-26.8c2.8-34.2,14.2-48.5,18.8-46.8c6.8,2.5,8,3.7,12.9,2.5c3.5-1.1,5.5,0.8,6.6,2.8c0.6,1.1,1.1,2.6,1.2,4.3
		c-10-19.2-26.3,28.6-24.5,52.6c2.9,11.5,12,7.9,18.2-1.5l2.3-4.2c0.6-1.4,1.1-2.8,1.5-4.5c-7.2-3.7-12.3-12.2-9.1-30.6
		c0.5-2,1.1-3.5,2-4.9c1.7-2.3,3.8-4,8-2.3c3.8,2.2,4.8,9.4,5.2,10.3l0.2,3.7c0.2,10.9-2.3,18.8-3.1,22.5c1.5,0.6,3.4,1.1,5.5,1.4
		c7.2,1.1,10.3-0.2,11.7-1.5c0.8-0.8,1.2-1.8,1.1-2.9H508.8z M485,145.6c4.9-16.6,2-33.1-2.5-33.9c-1.4-0.5-2.6,0.2-3.8,1.5
		C475.4,117.6,473.6,138.6,485,145.6z"/>
</g>
</svg>
